<?xml version="1.0" encoding="UTF-8" standalone="no"?>
<!-- Uploaded to: SVG Repo, www.svgrepo.com, Transformed by: SVG Repo Mixer Tools -->

<svg
   fill="#000000"
   version="1.1"
   id="Capa_1"
   width="800px"
   height="800px"
   viewBox="0 0 394.873 394.873"
   xml:space="preserve"
   stroke="#000000"
   stroke-width="7.897460000000001"
   sodipodi:docname="down-arrow-lr.svg"
   inkscape:version="1.4 (e7c3feb100, 2024-10-09)"
   xmlns:inkscape="http://www.inkscape.org/namespaces/inkscape"
   xmlns:sodipodi="http://sodipodi.sourceforge.net/DTD/sodipodi-0.dtd"
   xmlns="http://www.w3.org/2000/svg"
   xmlns:svg="http://www.w3.org/2000/svg"><defs
   id="defs4" /><sodipodi:namedview
   id="namedview4"
   pagecolor="#505050"
   bordercolor="#eeeeee"
   borderopacity="1"
   inkscape:showpageshadow="0"
   inkscape:pageopacity="0"
   inkscape:pagecheckerboard="0"
   inkscape:deskcolor="#d1d1d1"
   inkscape:zoom="1.03875"
   inkscape:cx="399.51865"
   inkscape:cy="400"
   inkscape:window-width="1916"
   inkscape:window-height="1036"
   inkscape:window-x="0"
   inkscape:window-y="1098"
   inkscape:window-maximized="1"
   inkscape:current-layer="Capa_1" />

<g
   id="SVGRepo_bgCarrier"
   stroke-width="0" />

<g
   id="SVGRepo_tracerCarrier"
   stroke-linecap="round"
   stroke-linejoin="round" />

<g
   id="SVGRepo_iconCarrier"
   transform="matrix(-0.96269762,0,0,1,388.21982,0)"> <g
   id="g4"> <g
   id="g3"> <path
   d="M 334.678,145.951 C 315.094,107.395 275.314,87.199 234.922,78.631 134.553,57.211 43.365,121.471 0.525,208.375 c -2.448,4.896 4.284,8.567 7.344,4.283 49.572,-78.335 124.848,-137.087 222.769,-120.563 91.188,15.912 111.996,94.86 112.608,175.643 0,8.568 13.464,8.568 13.464,0 0.612,-41.615 -3.061,-84.455 -22.032,-121.787 z"
   id="path1" /> <path
   d="m 220.846,114.739 c -44.676,-5.508 -88.74,13.464 -126.685,35.496 -22.032,12.852 -67.32,41.616 -64.872,72.215 0,2.448 3.06,3.061 4.896,1.225 39.78,-56.304 107.1,-98.532 178.705,-96.696 79.561,2.448 89.353,76.5 89.353,140.148 0,9.18 14.075,9.18 14.075,0 -10e-4,-70.992 -12.852,-141.984 -95.472,-152.388 z"
   id="path2" /> <path
   d="m 380.578,238.975 c -6.12,13.464 -25.704,69.156 -47.124,66.096 -9.792,-1.224 -19.584,-10.403 -26.929,-16.523 -12.852,-9.792 -25.703,-20.196 -39.168,-29.376 -4.283,-3.061 -9.18,3.672 -5.508,7.344 18.972,17.136 46.512,52.021 74.664,53.856 29.376,1.224 48.348,-54.469 57.528,-73.44 4.285,-9.181 -9.18,-16.526 -13.463,-7.957 z"
   id="path3" /> </g> </g> </g>

</svg>
